<?xml version="1.0" encoding="UTF-8"?>
<svg width="2677px" height="446px" viewBox="0 0 2677 446" version="1.1" xmlns="http://www.w3.org/2000/svg" xmlns:xlink="http://www.w3.org/1999/xlink">
    <title>Group 25</title>
    <defs>
        <polygon id="path-1" points="0 0 563 0 563 345 0 345"></polygon>
        <polygon id="path-3" points="0.147963741 445.720945 2675.14796 445.720945 2675.14796 -0.279055463 0.147963741 -0.279055463"></polygon>
    </defs>
    <g id="-" stroke="none" stroke-width="1" fill="none" fill-rule="evenodd">
        <g id="Group-25" transform="translate(0.852036, 0.279055)">
            <g id="Group-3" transform="translate(0.147964, -0.279055)">
                <mask id="mask-2" fill="white">
                    <use xlink:href="#path-1"></use>
                </mask>
                <g id="Clip-2"></g>
                <path d="M516.182761,274.404286 C516.182761,287.546593 505.528966,298.190575 492.392501,298.190575 L70.6115166,298.190575 C57.4710336,298.190575 46.8172393,287.546593 46.8172393,274.404286 L46.8172393,70.6021403 C46.8172393,57.459834 57.4710336,46.8118346 70.6115166,46.8118346 L492.392501,46.8118346 C505.528966,46.8118346 516.182761,57.459834 516.182761,70.6021403 L516.182761,274.404286 Z M510.128738,-0.00160663891 L52.8712619,-0.00160663891 C23.6737593,-0.00160663891 0,23.6682011 0,52.8608301 L0,292.137563 C0,321.338225 23.6737593,345 52.8712619,345 L510.128738,345 C539.326241,345 563,321.338225 563,292.137563 L563,52.8608301 C563,23.6682011 539.326241,-0.00160663891 510.128738,-0.00160663891 L510.128738,-0.00160663891 Z" id="Fill-1" fill="#2B3F60" mask="url(#mask-2)"></path>
            </g>
            <path d="M616.330724,374.12556 C616.330724,387.267805 605.67693,397.911738 592.540464,397.911738 L170.755463,397.911738 C157.618997,397.911738 146.965203,387.267805 146.965203,374.12556 L146.965203,170.324363 C146.965203,157.182118 157.618997,146.534168 170.755463,146.534168 L592.540464,146.534168 C605.67693,146.534168 616.330724,157.182118 616.330724,170.324363 L616.330724,374.12556 Z M610.276702,99.7209445 L153.019226,99.7209445 C123.821723,99.7209445 100.147964,123.390642 100.147964,152.583135 L100.147964,391.858754 C100.147964,421.05928 123.821723,444.720945 153.019226,444.720945 L610.276702,444.720945 C639.474204,444.720945 663.147964,421.05928 663.147964,391.858754 L663.147964,152.583135 C663.147964,123.390642 639.474204,99.7209445 610.276702,99.7209445 L610.276702,99.7209445 Z" id="Fill-4" fill="#E64070"></path>
            <mask id="mask-4" fill="white">
                <use xlink:href="#path-3"></use>
            </mask>
            <g id="Clip-7"></g>
            <polygon id="Fill-6" fill="#2B4162" mask="url(#mask-4)" points="516.147964 157.720945 563.147964 157.720945 563.147964 75.7209445 516.147964 75.7209445"></polygon>
            <polygon id="Fill-8" fill="#2B3F60" mask="url(#mask-4)" points="764.147964 185.720945 764.147964 3.72094454 777.620056 3.72094454 777.620056 173.237699 884.147964 173.237699 884.147964 185.720945"></polygon>
            <polygon id="Fill-9" fill="#2B3F60" mask="url(#mask-4)" points="908.147964 185.720945 921.147964 185.720945 921.147964 3.72094454 908.147964 3.72094454"></polygon>
            <path d="M1040.20677,188.720945 C988.447912,188.720945 950.147964,147.432635 950.147964,95.2379033 L950.147964,94.718933 C950.147964,43.3086914 988.447912,0.720944537 1040.72796,0.720944537 C1073.07023,0.720944537 1092.4788,12.665307 1111.11359,29.8033952 L1101.5396,39.6678534 C1085.75135,24.3481727 1067.63776,12.9227806 1040.46335,12.9227806 C996.99554,12.9227806 964.124057,48.5024172 964.124057,94.1959397 L964.124057,94.718933 C964.124057,140.681998 997.508718,176.511062 1040.72796,176.511062 C1066.85997,176.511062 1084.71697,166.389131 1103.08716,148.213102 L1112.14796,157.03962 C1092.99999,175.996115 1072.29244,188.720945 1040.20677,188.720945" id="Fill-10" fill="#2B3F60" mask="url(#mask-4)"></path>
            <polygon id="Fill-11" fill="#2B3F60" mask="url(#mask-4)" points="1138.14796 185.720945 1138.14796 3.72094454 1266.85861 3.72094454 1266.85861 16.1961338 1151.59003 16.1961338 1151.59003 87.6998742 1255.22645 87.6998742 1255.22645 100.179092 1151.59003 100.179092 1151.59003 173.237699 1268.14796 173.237699 1268.14796 185.720945"></polygon>
            <polygon id="Fill-12" fill="#2B3F60" mask="url(#mask-4)" points="1437.0344 185.720945 1309.12355 24.0026939 1309.12355 185.720945 1296.14796 185.720945 1296.14796 3.72094454 1308.86227 3.72094454 1434.17639 162.063603 1434.17639 3.72094454 1447.14796 3.72094454 1447.14796 185.720945"></polygon>
            <path d="M1549.12017,187.720945 C1520.14055,187.720945 1497.88769,178.11201 1476.14796,158.632592 L1484.94327,148.500559 C1504.87904,166.937802 1523.24737,175.508585 1549.89788,175.508585 C1577.06152,175.508585 1595.69844,160.189819 1595.69844,139.414724 L1595.69844,138.891624 C1595.69844,119.669732 1585.60027,108.507595 1544.46596,100.194338 C1500.99451,91.3660288 1483.39588,76.558291 1483.39588,49.0271654 L1483.39588,48.5040659 C1483.39588,21.4960398 1507.97785,0.720944537 1541.6157,0.720944537 C1568.00965,0.720944537 1585.3437,7.98800283 1603.72005,22.7917168 L1595.17729,33.4428261 C1578.0998,18.6350882 1561.0223,12.9252567 1541.09455,12.9252567 C1514.44404,12.9252567 1496.85342,28.2480463 1496.85342,47.2083889 L1496.85342,47.7314883 C1496.85342,66.9493567 1506.683,78.6386172 1549.6333,87.4669261 C1591.55734,96.0377091 1609.14796,111.098949 1609.14796,137.595947 L1609.14796,138.110999 C1609.14796,167.460901 1584.05287,187.720945 1549.12017,187.720945" id="Fill-13" fill="#2B3F60" mask="url(#mask-4)"></path>
            <polygon id="Fill-14" fill="#2B3F60" mask="url(#mask-4)" points="1637.14796 185.720945 1637.14796 3.72094454 1765.85069 3.72094454 1765.85069 16.1961338 1650.5892 16.1961338 1650.5892 87.6998742 1754.21923 87.6998742 1754.21923 100.179092 1650.5892 100.179092 1650.5892 173.237699 1767.14796 173.237699 1767.14796 185.720945"></polygon>
            <path d="M904.718144,339.220945 C904.718144,302.553707 879.67783,276.832695 842.562502,276.832695 L807.508469,276.832695 L807.508469,401.617245 L842.562502,401.617245 C879.67783,401.617245 904.718144,376.479978 904.718144,339.808715 L904.718144,339.220945 Z M842.562502,442.720945 L762.147964,442.720945 L762.147964,235.720945 L842.562502,235.720945 C907.368952,235.720945 952.147964,280.371398 952.147964,338.633174 L952.147964,339.220945 C952.147964,397.474669 907.368952,442.720945 842.562502,442.720945 L842.562502,442.720945 Z" id="Fill-15" fill="#2B3F60" mask="url(#mask-4)"></path>
            <path d="M1054.05729,288.30071 L1026.60494,355.272187 L1081.50964,355.272187 L1054.05729,288.30071 Z M1116.62872,441.720945 L1097.73915,395.403659 L1010.37542,395.403659 L991.48586,441.720945 L945.147964,441.720945 L1033.69304,233.720945 L1075.60288,233.720945 L1164.14796,441.720945 L1116.62872,441.720945 Z" id="Fill-16" fill="#2B3F60" mask="url(#mask-4)"></path>
            <path d="M1258.06815,445.720945 C1226.68996,445.720945 1195.01758,434.774116 1170.14796,412.58242 L1197.08904,380.342035 C1215.73621,395.727203 1235.27403,405.481883 1258.9588,405.481883 C1277.60597,405.481883 1288.84989,398.087336 1288.84989,385.956413 L1288.84989,385.368394 C1288.84989,373.829518 1281.74486,367.917102 1247.1144,359.040424 C1205.37085,348.387605 1178.43783,336.844701 1178.43783,295.731666 L1178.43783,295.135591 C1178.43783,257.566783 1208.63118,232.720945 1250.96312,232.720945 C1281.15647,232.720945 1306.90867,242.181615 1327.92955,259.044887 L1304.24478,293.367505 C1285.89584,280.640507 1267.83706,272.951951 1250.37473,272.951951 C1232.90434,272.951951 1223.73188,280.934517 1223.73188,290.999317 L1223.73188,291.587336 C1223.73188,305.192336 1232.61014,309.634702 1268.43351,318.80539 C1310.46319,329.752219 1334.14796,344.835323 1334.14796,380.930055 L1334.14796,381.526129 C1334.14796,422.64722 1302.76575,445.720945 1258.06815,445.720945" id="Fill-17" fill="#2B3F60" mask="url(#mask-4)"></path>
            <polygon id="Fill-18" fill="#2B3F60" mask="url(#mask-4)" points="1487.62317 442.720945 1487.62317 359.622222 1403.67275 359.622222 1403.67275 442.720945 1358.14796 442.720945 1358.14796 235.720945 1403.67275 235.720945 1403.67275 317.627999 1487.62317 317.627999 1487.62317 235.720945 1533.14796 235.720945 1533.14796 442.720945"></polygon>
            <path d="M1697.89151,379.734423 C1697.89151,365.840752 1687.54189,357.257353 1664.16865,357.257353 L1611.51846,357.257353 L1611.51846,402.799286 L1665.64659,402.799286 C1685.76191,402.799286 1697.89151,395.701476 1697.89151,380.330268 L1697.89151,379.734423 Z M1686.35792,296.927981 C1686.35792,283.328207 1675.71029,275.642603 1656.48093,275.642603 L1611.51846,275.642603 L1611.51846,319.405051 L1653.51699,319.405051 C1673.63634,319.405051 1686.35792,312.903086 1686.35792,297.523827 L1686.35792,296.927981 Z M1665.64659,442.720945 L1567.14796,442.720945 L1567.14796,235.720945 L1663.27866,235.720945 C1705.57923,235.720945 1731.61437,256.712426 1731.61437,289.242378 L1731.61437,289.838223 C1731.61437,313.196983 1719.1908,326.208964 1704.39526,334.490413 C1728.35646,343.653553 1743.14796,357.559302 1743.14796,385.354697 L1743.14796,385.94249 C1743.14796,423.802845 1712.38501,442.720945 1665.64659,442.720945 L1665.64659,442.720945 Z" id="Fill-19" fill="#2B3F60" mask="url(#mask-4)"></path>
            <path d="M1928.53786,338.720945 C1928.53786,303.243416 1902.52077,273.689541 1865.85209,273.689541 C1829.18743,273.689541 1803.75807,302.65588 1803.75807,338.133408 L1803.75807,338.720945 C1803.75807,374.190424 1829.77516,403.752349 1866.43982,403.752349 C1903.1085,403.752349 1928.53786,374.786009 1928.53786,339.308481 L1928.53786,338.720945 Z M1865.85209,445.720945 C1801.97878,445.720945 1756.14796,398.134537 1756.14796,339.308481 L1756.14796,338.720945 C1756.14796,279.894889 1802.57456,231.720945 1866.43982,231.720945 C1930.3091,231.720945 1976.14796,279.307352 1976.14796,338.133408 L1976.14796,338.720945 C1976.14796,397.547 1929.72137,445.720945 1865.85209,445.720945 L1865.85209,445.720945 Z" id="Fill-20" fill="#2B3F60" mask="url(#mask-4)"></path>
            <path d="M2081.05729,288.30071 L2053.60494,355.272187 L2108.50964,355.272187 L2081.05729,288.30071 Z M2143.62872,441.720945 L2124.73915,395.403659 L2037.37542,395.403659 L2018.48586,441.720945 L1972.14796,441.720945 L2060.69304,233.720945 L2102.60288,233.720945 L2191.14796,441.720945 L2143.62872,441.720945 Z" id="Fill-21" fill="#2B3F60" mask="url(#mask-4)"></path>
            <path d="M2339.7869,306.398373 C2339.7869,286.881161 2326.18003,276.832695 2303.98932,276.832695 L2258.71768,276.832695 L2258.71768,336.265987 L2304.86341,336.265987 C2327.05413,336.265987 2339.7869,324.438106 2339.7869,306.986143 L2339.7869,306.398373 Z M2338.88864,442.720945 L2294.50721,376.479978 L2258.71768,376.479978 L2258.71768,442.720945 L2213.14796,442.720945 L2213.14796,235.720945 L2307.82002,235.720945 C2356.64443,235.720945 2385.93666,261.450008 2385.93666,304.031186 L2385.93666,304.627009 C2385.93666,338.037351 2367.89487,359.032042 2341.55926,368.790648 L2392.14796,442.720945 L2338.88864,442.720945 Z" id="Fill-22" fill="#2B3F60" mask="url(#mask-4)"></path>
            <path d="M2558.72516,339.220945 C2558.72516,302.553707 2533.68432,276.832695 2496.57222,276.832695 L2461.52146,276.832695 L2461.52146,401.617245 L2496.57222,401.617245 C2533.68432,401.617245 2558.72516,376.479978 2558.72516,339.808715 L2558.72516,339.220945 Z M2496.57222,442.720945 L2416.14796,442.720945 L2416.14796,235.720945 L2496.57222,235.720945 C2561.38004,235.720945 2606.14796,280.371398 2606.14796,338.633174 L2606.14796,339.220945 C2606.14796,397.474669 2561.38004,442.720945 2496.57222,442.720945 L2496.57222,442.720945 Z" id="Fill-23" fill="#2B3F60" mask="url(#mask-4)"></path>
            <path d="M2658.74462,260.436704 L2658.20496,260.436704 L2645.54704,241.364723 L2645.54704,267.720945 L2641.82578,267.720945 L2641.82578,234.720945 L2645.76854,234.720945 L2658.54325,254.327995 L2671.31797,234.720945 L2675.14796,234.720945 L2675.14796,267.720945 L2671.40254,267.720945 L2671.40254,241.364723 L2658.74462,260.436704 Z M2623.63027,267.720945 L2619.88484,267.720945 L2619.88484,238.369145 L2609.14796,238.369145 L2609.14796,234.720945 L2634.36715,234.720945 L2634.36715,238.369145 L2623.63027,238.369145 L2623.63027,267.720945 Z" id="Fill-24" fill="#2B3F60" mask="url(#mask-4)"></path>
        </g>
    </g>
</svg>